# File created by Blade
# Date/Time:  Wed Apr 08 17:35:20 2015
#---------------------------------------------------------
:version 1.10
:name HOM
:units
  mass 1.0
  length 1.000000
  angle deg
:documentation
     Acclaim Skeleton File
:root
   axis xyz
   order TX TY TZ RX RY RZ
   position 0.000000 0.000000 0.000000
   orientation 0 0 0
:bonedata
   begin
      id 1
      name Spine_dum
      direction 0.000000 1.000000 0.000000
      length 5.893853
      axis 0.0 0.0 0.0 xyz
   end
   begin
      id 2
      name LeftUpLeg_dum
      direction 1.000000 0.000000 0.000000
      length 3.697939
      axis 0.0 0.0 0.0 xyz
   end
   begin
      id 3
      name RightUpLeg_dum
      direction -1.000000 0.000000 0.000000
      length 3.697939
      axis 0.0 0.0 0.0 xyz
   end
   begin
      id 4
      name Spine
      direction 0.000000 1.000000 0.000000
      length 0.000000
      axis 0.0 0.0 0.0 xyz
      dof rx ry rz
   end
   begin
      id 5
      name Spine_dum1
      direction 0.000000 1.000000 0.000000
      length 16.447146
      axis 0.0 0.0 0.0 xyz
   end
   begin
      id 6
      name Spine_dum2
      direction 0.000000 1.000000 0.000000
      length 10.900383
      axis 0.0 0.0 0.0 xyz
   end
   begin
      id 7
      name Spine_dum3
      direction 0.000000 1.000000 0.000000
      length 10.900383
      axis 0.0 0.0 0.0 xyz
   end
   begin
      id 8
      name Head
      direction 0.000000 1.000000 0.000000
      length 4.527550
      axis 0.0 0.0 0.0 xyz
      dof rx ry rz
   end
   begin
      id 9
      name LeftShoulder
      direction 1.000000 0.000000 0.000000
      length 8.219464
      axis 0.0 0.0 -90.0 xyz
      dof rx ry rz
   end
   begin
      id 10
      name LeftArm
      direction 1.000000 0.000000 0.000000
      length 11.094937
      axis 0.0 0.0 -90.0 xyz
      dof rx ry rz
   end
   begin
      id 11
      name LeftForeArm
      direction 1.000000 0.000000 0.000000
      length 9.103875
      axis 0.0 0.0 -90.0 xyz
      dof ry rz rx
   end
   begin
      id 12
      name LeftHand
      direction 0.000000 0.000000 0.000000
      length 0.000000
      axis 0.0 0.0 -90.0 xyz
      dof rx ry rz
   end
   begin
      id 13
      name LeftHand_dum1
      direction 0.000000 0.000000 0.000000
      length 0.000000
      axis 0.0 0.0 -90.0 xyz
   end
   begin
      id 14
      name LeftHand_dum2
      direction 1.000000 0.000000 0.000000
      length 3.937000
      axis 0.0 0.0 -90.0 xyz
   end
   begin
      id 15
      name LeftHandThumb1
      direction 0.000000 0.000000 1.000000
      length 3.937000
      axis 0.0 0.0 -90.0 xyz
      dof rx rz ry
   end
   begin
      id 16
      name RightShoulder
      direction -1.000000 0.000000 0.000000
      length 8.219464
      axis 0.0 0.0 90.0 xyz
      dof rx ry rz
   end
   begin
      id 17
      name RightArm
      direction -1.000000 0.000000 0.000000
      length 11.094937
      axis 0.0 0.0 90.0 xyz
      dof rx ry rz
   end
   begin
      id 18
      name RightForeArm
      direction -1.000000 0.000000 0.000000
      length 9.103875
      axis 0.0 0.0 90.0 xyz
      dof ry rz rx
   end
   begin
      id 19
      name RightHand
      direction 0.000000 0.000000 0.000000
      length 0.000000
      axis 0.0 0.0 90.0 xyz
      dof rx ry rz
   end
   begin
      id 20
      name RightHand_dum1
      direction 0.000000 0.000000 0.000000
      length 0.000000
      axis 0.0 0.0 90.0 xyz
   end
   begin
      id 21
      name RightHand_dum2
      direction -1.000000 0.000000 0.000000
      length 3.937000
      axis 0.0 0.0 90.0 xyz
   end
   begin
      id 22
      name RightHandThumb1
      direction 0.000000 0.000000 1.000000
      length 3.937000
      axis 0.0 0.0 90.0 xyz
      dof rx rz ry
   end
   begin
      id 23
      name LeftUpLeg
      direction 0.000000 -1.000000 0.000000
      length 16.181467
      axis 0.0 0.0 0.0 xyz
      dof rx ry rz
   end
   begin
      id 24
      name LeftLeg
      direction 0.000000 -1.000000 0.000000
      length 16.501392
      axis 0.0 0.0 0.0 xyz
      dof rx ry rz
   end
   begin
      id 25
      name LeftFoot
      direction 0.000000 -0.258819 0.965926
      length 6.408245
      axis 15.0 0.0 0.0 xyz
      dof rx ry rz
   end
   begin
      id 26
      name LeftToeBase
      direction 0.000000 0.000000 1.000000
      length 2.952750
      axis 0.0 0.0 0.0 xyz
      dof rx ry rz
   end
   begin
      id 27
      name RightUpLeg
      direction 0.000000 -1.000000 0.000000
      length 16.181467
      axis 0.0 0.0 0.0 xyz
      dof rx ry rz
   end
   begin
      id 28
      name RightLeg
      direction 0.000000 -1.000000 0.000000
      length 16.501392
      axis 0.0 0.0 0.0 xyz
      dof rx ry rz
   end
   begin
      id 29
      name RightFoot
      direction 0.000000 -0.258819 0.965926
      length 6.408245
      axis 15.0 0.0 0.0 xyz
      dof rx ry rz
   end
   begin
      id 30
      name RightToeBase
      direction 0.000000 0.000000 1.000000
      length 2.952750
      axis 0.0 0.0 0.0 xyz
      dof rx ry rz
   end
:hierarchy
   begin
      root Spine_dum LeftUpLeg_dum RightUpLeg_dum
      Spine_dum Spine
      LeftUpLeg_dum LeftUpLeg
      RightUpLeg_dum RightUpLeg
      Spine Spine_dum1 Spine_dum2 Spine_dum3
      Spine_dum1 Head
      Spine_dum2 LeftShoulder
      Spine_dum3 RightShoulder
      LeftShoulder LeftArm
      LeftArm LeftForeArm
      LeftForeArm LeftHand
      LeftHand LeftHand_dum1 LeftHand_dum2
      LeftHand_dum1 LeftHandThumb1
      RightShoulder RightArm
      RightArm RightForeArm
      RightForeArm RightHand
      RightHand RightHand_dum1 RightHand_dum2
      RightHand_dum1 RightHandThumb1
      LeftUpLeg LeftLeg
      LeftLeg LeftFoot
      LeftFoot LeftToeBase
      RightUpLeg RightLeg
      RightLeg RightFoot
      RightFoot RightToeBase
   end

# File created by Blade
# Date/Time:  Wed Apr 08 17:35:25 2015
# Frame Rate: 120.000 fps
#------------------------------------------------------
:FULLY-SPECIFIED
:DEGREES
432
root 6.990842 36.758522 3.142750 43.055049 -55.637967 -19.423681
Spine -32.226853 -7.633242 14.133870
Head 17.310790 9.798408 4.023322
LeftShoulder -11.255106 24.308214 11.307058
LeftArm 17.861586 22.071766 -78.099924
LeftForeArm 19.103577 -0.000000 26.977470
LeftHand -12.753657 -0.000000 -12.856217
LeftHandThumb1 -26.253704 0.000000 33.147579
RightShoulder -41.401259 -52.904653 16.781473
RightArm 50.639457 -19.660820 53.175742
RightForeArm 7.136717 -0.000000 26.081538
RightHand -1.528923 -0.000000 14.763290
RightHandThumb1 -24.326973 -0.000000 -32.862282
LeftUpLeg -35.214558 1.956813 5.701023
LeftLeg 23.689925 -0.000000 -0.000000
LeftFoot -12.856031 -2.394110 -2.214474
LeftToeBase 6.060503 -0.000000 -0.000000
RightUpLeg -117.002360 5.485163 22.985848
RightLeg 119.716621 -0.000000 -0.000000
RightFoot -16.363371 10.635855 19.124320
RightToeBase -9.241155 -0.000000 0.000000
433
root 6.999477 36.756652 3.144470 43.137373 -55.783793 -19.478674
Spine -32.227177 -7.585880 14.113017
Head 17.370115 9.761667 4.030047
LeftShoulder -11.268877 24.318083 11.282086
LeftArm 17.849438 22.044758 -78.102329
LeftForeArm 19.109871 -0.000000 26.957147
LeftHand -12.745582 -0.000000 -12.827285
LeftHandThumb1 -26.253704 0.000000 33.147579
RightShoulder -41.379693 -52.914601 16.774009
RightArm 50.681034 -19.655929 53.171978
RightForeArm 7.148538 0.000000 26.136866
RightHand -1.515326 0.000000 14.714061
RightHandThumb1 -24.326973 -0.000000 -32.862282
LeftUpLeg -35.204589 1.965056 5.654661
LeftLeg 23.644065 -0.000000 -0.000000
LeftFoot -12.867416 -2.240182 -2.192302
LeftToeBase 6.014208 -0.000000 -0.000000
RightUpLeg -116.982581 5.477076 23.009585
RightLeg 119.677966 -0.000000 -0.000000
RightFoot -16.486932 10.523613 19.043008
RightToeBase -9.199161 -0.000000 0.000000
434
root 7.008344 36.755334 3.145677 43.222067 -55.921689 -19.533694
Spine -32.232931 -7.542100 14.088771
Head 17.451493 9.723131 4.067274
LeftShoulder -11.273337 24.331652 11.271641
LeftArm 17.843302 22.014135 -78.113670
LeftForeArm 19.131831 -0.000000 26.931366
LeftHand -12.766866 -0.000000 -12.849773
LeftHandThumb1 -26.253704 0.000000 33.147579
RightShoulder -41.335118 -52.920776 16.754578
RightArm 50.717555 -19.716673 53.121890
RightForeArm 6.947178 -0.000000 26.200151
RightHand -1.461194 -0.000000 14.417347
RightHandThumb1 -24.326973 -0.000000 -32.862282
LeftUpLeg -35.197945 1.969294 5.621903
LeftLeg 23.592757 -0.000000 -0.000000
LeftFoot -12.868732 -2.125810 -2.210562
LeftToeBase 5.942432 -0.000000 -0.000000
RightUpLeg -116.971255 5.457440 23.012502
RightLeg 119.638310 -0.000000 -0.000000
RightFoot -16.511177 10.506239 19.138027
RightToeBase -9.616986 -0.000000 0.000000
435
root 7.017701 36.754299 3.146693 43.314542 -56.079162 -19.583151
Spine -32.245763 -7.487953 14.040909
Head 17.529689 9.668841 4.110705
LeftShoulder -11.278233 24.350720 11.277091
LeftArm 17.842081 22.006474 -78.118468
LeftForeArm 19.087796 -0.000000 26.907958
LeftHand -12.790756 0.000000 -12.763174
LeftHandThumb1 -26.253704 0.000000 33.147579
RightShoulder -41.343426 -52.905689 16.782890
RightArm 50.727466 -19.651458 53.174326
RightForeArm 7.201629 -0.000000 26.251570
RightHand -1.537993 -0.000000 14.646061
RightHandThumb1 -24.326973 -0.000000 -32.862282
LeftUpLeg -35.211154 2.028905 5.554916
LeftLeg 23.560304 -0.000000 -0.000000
LeftFoot -12.872793 -2.042779 -2.204583
LeftToeBase 5.916497 -0.000000 -0.000000
RightUpLeg -116.978998 5.454367 23.027226
RightLeg 119.604859 -0.000000 -0.000000
RightFoot -16.654916 10.364636 18.939630
RightToeBase -9.455187 -0.000000 0.000000
436
root 7.026175 36.753528 3.145715 43.391889 -56.192178 -19.643801
Spine -32.234657 -7.473214 14.040611
Head 17.615793 9.571309 4.150236
LeftShoulder -11.290960 24.377154 11.263846
LeftArm 17.855120 21.961657 -78.135217
LeftForeArm 19.139593 -0.000000 26.865255
LeftHand -12.803871 -0.000000 -12.767190
LeftHandThumb1 -26.253704 0.000000 33.147579
RightShoulder -41.325448 -52.898645 16.787637
RightArm 50.772957 -19.642527 53.169154
RightForeArm 7.262394 -0.000000 26.286741
RightHand -1.509404 -0.000000 14.677046
RightHandThumb1 -24.326973 -0.000000 -32.862282
LeftUpLeg -35.217905 2.067423 5.524718
LeftLeg 23.545511 -0.000000 -0.000000
LeftFoot -12.870997 -1.978704 -2.197951
LeftToeBase 5.862728 -0.000000 -0.000000
RightUpLeg -116.967610 5.410762 23.068333
RightLeg 119.566230 -0.000000 -0.000000
RightFoot -16.735681 10.284441 18.832329
RightToeBase -9.500115 -0.000000 0.000000
437
root 7.035101 36.753679 3.144145 43.493056 -56.321945 -19.719124
Spine -32.226563 -7.443095 14.020189
Head 17.676599 9.538831 4.196268
LeftShoulder -11.289986 24.399891 11.277071
LeftArm 17.849757 21.930766 -78.160622
LeftForeArm 19.165144 -0.000000 26.850740
LeftHand -12.825435 -0.000000 -12.732613
LeftHandThumb1 -26.253704 0.000000 33.147579
RightShoulder -41.302561 -52.877449 16.801107
RightArm 50.800984 -19.652018 53.142117
RightForeArm 7.294354 -0.000000 26.340170
RightHand -1.536618 -0.000000 14.724933
RightHandThumb1 -24.326973 -0.000000 -32.862282
LeftUpLeg -35.235189 2.147456 5.478883
LeftLeg 23.531852 -0.000000 -0.000000
LeftFoot -12.866799 -1.925479 -2.199522
LeftToeBase 5.834565 -0.000000 -0.000000
RightUpLeg -116.957306 5.390855 23.079628
RightLeg 119.512897 -0.000000 -0.000000
RightFoot -16.762473 10.283418 18.888005
RightToeBase -9.741180 -0.000000 0.000000
